{"title":"Tekken.2.A.Man.Called.X.2014.AVI.BRRip.360p.DivX.NLsub.{Th3Sp3ci","uid":11012609,"size":858171596,"categoryP":"video","categoryS":"hd___movies","magnet":"?xt=urn:btih:86512c4ed0cb75dcf01a92232c1b76020a62e25f&amp;dn=Tekken.2.A.Man.Called.X.2014.AVI.BRRip.360p.DivX.NLsub.%7BTh3Sp3ci&amp;tr=udp%3A%2F%2Ftracker.openbittorrent.com%3A80&amp;tr=udp%3A%2F%2Fopen.demonii.com%3A1337&amp;tr=udp%3A%2F%2Ftracker.coppersurfer.tk%3A6969&amp;tr=udp%3A%2F%2Fexodus.desync.com%3A6969","seeders":1,"leechers":0,"uploader":"HOLLANDmovies","files":-1,"time":1410390593,"description":"Tekken: A Man Called X 2015 (DivX 360p) \n\nINFO\n\nTekken: A Man Called X (2014)\n90 min - Action - 2015 (USA)\n\nSuffering from amnesia, a young man trying to discover his true identity is kidnapped by an underground crime organization and turned into a ruthless assassin.\n\nDirector: Wych Kaosayananda (as Wych Kaos)\nWriters: Nicole Jones-Dion, Steven Paul\nStars: Kane Kosugi, Cary-Hiroyuki Tagawa, Rade Serbedzija \n\nGENERAL:\n\nComplete name : Tekken.2.A.Man.Called.X.2014.AVI.BRRip.360p.DivX.NLsub.{Th3Sp3cialist}.Movie.avi\nFormat : AVI\nFormat/Info : Audio Video Interleave\nFile size : 801 MiB\nDuration : 1h 28mn\nOverall bit rate : 1 263 Kbps\n\nVideo\nID : 0\nFormat : xvid\nCodec ID : xvid\nDuration : 1h 28mn\nBit rate : 1 058 Kbps\nWidth : 640 pixels\nHeight : 360 pixels\nDisplay aspect ratio : 16:9\nFrame rate : 24.000 fps\nBits/(Pixel*Frame) : 0.191\nStream size : 671 MiB (84%)\n\nAudio\nID : 1\nFormat : MPEG Audio\nFormat version : Version 1\nFormat profile : Layer 3\nMode : Joint stereo\nMode extension : MS Stereo\nCodec ID : 55\nCodec ID/Hint : MP3\nDuration : 1h 28mn\nBit rate mode : Constant\nBit rate : 192 Kbps\nChannel(s) : 2 channels\nSampling rate : 48.0 KHz\nCompression mode : Lossy\nStream size : 122 MiB (15%)\nAlignment : Aligned on interleaves\nInterleave, duration : 24 ms (0.58 video frame)\nInterleave, preload duration : 24 ms\n &lt;a href=&quot;\nhttp://bayimg.com/aAaHoaAgf&quot; rel=&quot;nofollow&quot; target=&quot;_NEW&quot;&gt;\nhttp://bayimg.com/aAaHoaAgf&lt;/a&gt; &lt;a href=&quot;\nhttp://bayimg.com/BAAhAaagf&quot; rel=&quot;nofollow&quot; target=&quot;_NEW&quot;&gt;\nhttp://bayimg.com/BAAhAaagf&lt;/a&gt; &lt;a href=&quot;\nhttp://bayimg.com/BAahbAaGF&quot; rel=&quot;nofollow&quot; target=&quot;_NEW&quot;&gt;\nhttp://bayimg.com/BAahbAaGF&lt;/a&gt;","torrent":{"xt":"urn:btih:86512c4ed0cb75dcf01a92232c1b76020a62e25f","amp;dn":"Tekken.2.A.Man.Called.X.2014.AVI.BRRip.360p.DivX.NLsub.%7BTh3Sp3ci","amp;tr":["udp%3A%2F%2Ftracker.openbittorrent.com%3A80","udp%3A%2F%2Fopen.demonii.com%3A1337","udp%3A%2F%2Ftracker.coppersurfer.tk%3A6969","udp%3A%2F%2Fexodus.desync.com%3A6969"],"infoHash":"86512c4ed0cb75dcf01a92232c1b76020a62e25f","infoHashBuffer":{"type":"Buffer","data":[134,81,44,78,208,203,117,220,240,26,146,35,44,27,118,2,10,98,226,95]},"announce":[],"urlList":[]}}